<svg width="25" height="24" viewBox="0 0 25 24" fill="none" xmlns="http://www.w3.org/2000/svg">
<path fill-rule="evenodd" clip-rule="evenodd" d="M19.959 10.5745C19.959 12.7688 19.2151 14.7888 17.9658 16.3972L22.7871 21.2185C23.1777 21.6091 23.1777 22.2424 22.7871 22.6326C22.3967 23.0232 21.7634 23.0232 21.373 22.6326L16.5801 17.8401C14.9268 19.2346 12.791 20.0745 10.459 20.0745C5.21216 20.0745 0.958984 15.821 0.958984 10.5745C0.958984 5.32788 5.21216 1.07446 10.459 1.07446C15.7058 1.07446 19.959 5.32788 19.959 10.5745ZM2.85889 10.5745C2.85889 14.7717 6.26172 18.1746 10.459 18.1746C14.6562 18.1746 18.0591 14.7717 18.0591 10.5745C18.0591 6.3772 14.6562 2.97437 10.459 2.97437C6.26172 2.97437 2.85889 6.3772 2.85889 10.5745ZM10.5005 15.5048C13.2619 15.5048 15.5005 13.2663 15.5005 10.5048C15.5005 7.74341 13.2619 5.50484 10.5005 5.50484C7.73906 5.50484 5.50049 7.74341 5.50049 10.5048C5.50049 13.2663 7.73906 15.5048 10.5005 15.5048Z" fill="white"/>
</svg>
