<svg width="25" height="24" viewBox="0 0 25 24" fill="none" xmlns="http://www.w3.org/2000/svg">
<path fill-rule="evenodd" clip-rule="evenodd" d="M17.9805 13.0552C17.9805 15.8164 15.7419 18.0552 12.9805 18.0552C10.219 18.0552 7.98047 15.8164 7.98047 13.0552C7.98047 10.2939 10.219 8.05518 12.9805 8.05518C15.7419 8.05518 17.9805 10.2939 17.9805 13.0552ZM15.9805 13.0552C15.9805 14.7119 14.6372 16.0552 12.9805 16.0552C11.3237 16.0552 9.98047 14.7119 9.98047 13.0552C9.98047 11.3984 11.3237 10.0552 12.9805 10.0552C14.6372 10.0552 15.9805 11.3984 15.9805 13.0552Z" fill="white"/>
<path fill-rule="evenodd" clip-rule="evenodd" d="M10.2195 2.0791C9.52344 2.0791 8.8772 2.44092 8.51392 3.03467L6.78174 5.86377H3.08984C1.98535 5.86377 1.08984 6.75928 1.08984 7.86377V19.9209C1.08984 21.0259 1.98535 21.9209 3.08984 21.9209H22.8711C23.9758 21.9209 24.8711 21.0259 24.8711 19.9209V7.86377C24.8711 6.75928 23.9758 5.86377 22.8711 5.86377H19.1738L17.4014 3.021C17.0361 2.43506 16.3945 2.0791 15.7041 2.0791H10.2195ZM10.2195 4.0791H15.7041L17.4768 6.92188C17.842 7.50781 18.4836 7.86377 19.1738 7.86377H22.8711V19.9209H3.08984V7.86377H6.78174C7.47803 7.86377 8.12402 7.50146 8.48755 6.9082L10.2195 4.0791Z" fill="white"/>
</svg>
