<svg width="25" height="24" viewBox="0 0 25 24" fill="none" xmlns="http://www.w3.org/2000/svg">
<path d="M12.845 2.51136L3.97285 7.7432C3.94236 7.76118 3.92365 7.79394 3.92365 7.82934V21.4183C3.92365 21.4736 3.96842 21.5183 4.02365 21.5183H10.3464C10.4016 21.5183 10.4464 21.4736 10.4464 21.4183V14.6241C10.4464 14.5689 10.4912 14.5241 10.5464 14.5241H15.4219C15.4771 14.5241 15.5219 14.5689 15.5219 14.6241V21.4183C15.5219 21.4736 15.5667 21.5183 15.6219 21.5183H21.9373C21.9925 21.5183 22.0373 21.4736 22.0373 21.4183V7.82988C22.0373 7.79419 22.0183 7.76121 21.9874 7.74333L12.9459 2.51095C12.9146 2.49287 12.8761 2.49303 12.845 2.51136Z" stroke="white" stroke-width="2"/>
</svg>
