<svg width="25" height="24" viewBox="0 0 25 24" fill="none" xmlns="http://www.w3.org/2000/svg">
<path d="M3.96497 1.78516C3.41125 1.78516 2.96228 2.23389 2.96228 2.78809V21.1777C2.96228 21.7319 3.41125 22.1807 3.96497 22.1807C4.51868 22.1807 4.96765 21.7319 4.96765 21.1777V2.78809C4.96765 2.23389 4.51868 1.78516 3.96497 1.78516Z" fill="white"/>
<path d="M9.00598 2.78809C9.00598 2.23389 9.45496 1.78516 10.0087 1.78516C10.5624 1.78516 11.0114 2.23389 11.0114 2.78809V21.1777C11.0114 21.7319 10.5624 22.1807 10.0087 22.1807C9.45496 22.1807 9.00598 21.7319 9.00598 21.1777V2.78809Z" fill="white"/>
<path fill-rule="evenodd" clip-rule="evenodd" d="M15.0079 3.0083C15.0079 2.14941 15.9481 1.62207 16.6813 2.06982L22.4718 5.60547C22.6332 5.7041 22.7633 5.84033 22.8541 5.99902C22.9474 6.1626 22.9987 6.3501 22.9987 6.54443V21.1147C22.9987 21.7222 22.506 22.2148 21.8986 22.2148H16.108C15.5004 22.2148 15.0079 21.7222 15.0079 21.1147V3.0083ZM17.0079 4.61279V20.2148H20.9987V7.04932L17.0079 4.61279Z" fill="white"/>
</svg>
